<?xml version="1.0" standalone="no"?>
<svg xmlns:xlink="http://www.w3.org/1999/xlink" id="wave" style="transform:rotate(0deg); transition: 0.3s" viewBox="0 0 1440 490" version="1.1" xmlns="http://www.w3.org/2000/svg"><defs><linearGradient id="sw-gradient-0" x1="0" x2="0" y1="1" y2="0"><stop stop-color="rgba(243, 106, 62, 1)" offset="0%"/><stop stop-color="rgba(255, 179, 11, 1)" offset="100%"/></linearGradient></defs><path style="transform:translate(0, 0px); opacity:1" fill="url(#sw-gradient-0)" d="M0,196L30,187.8C60,180,120,163,180,163.3C240,163,300,180,360,163.3C420,147,480,98,540,65.3C600,33,660,16,720,73.5C780,131,840,261,900,302.2C960,343,1020,294,1080,302.2C1140,310,1200,376,1260,400.2C1320,425,1380,408,1440,351.2C1500,294,1560,196,1620,147C1680,98,1740,98,1800,147C1860,196,1920,294,1980,310.3C2040,327,2100,261,2160,228.7C2220,196,2280,196,2340,171.5C2400,147,2460,98,2520,65.3C2580,33,2640,16,2700,65.3C2760,114,2820,229,2880,236.8C2940,245,3000,147,3060,114.3C3120,82,3180,114,3240,130.7C3300,147,3360,147,3420,130.7C3480,114,3540,82,3600,106.2C3660,131,3720,212,3780,204.2C3840,196,3900,98,3960,73.5C4020,49,4080,98,4140,114.3C4200,131,4260,114,4290,106.2L4320,98L4320,490L4290,490C4260,490,4200,490,4140,490C4080,490,4020,490,3960,490C3900,490,3840,490,3780,490C3720,490,3660,490,3600,490C3540,490,3480,490,3420,490C3360,490,3300,490,3240,490C3180,490,3120,490,3060,490C3000,490,2940,490,2880,490C2820,490,2760,490,2700,490C2640,490,2580,490,2520,490C2460,490,2400,490,2340,490C2280,490,2220,490,2160,490C2100,490,2040,490,1980,490C1920,490,1860,490,1800,490C1740,490,1680,490,1620,490C1560,490,1500,490,1440,490C1380,490,1320,490,1260,490C1200,490,1140,490,1080,490C1020,490,960,490,900,490C840,490,780,490,720,490C660,490,600,490,540,490C480,490,420,490,360,490C300,490,240,490,180,490C120,490,60,490,30,490L0,490Z"/></svg>